<svg id="visual" viewBox="0 0 960 300" width="960" height="300" xmlns="http://www.w3.org/2000/svg" xmlns:xlink="http://www.w3.org/1999/xlink" version="1.1"><rect x="0" y="0" width="960" height="300" fill="#FA7268"></rect><path d="M0 209L22.8 206C45.7 203 91.3 197 137 190.8C182.7 184.7 228.3 178.3 274 184.8C319.7 191.3 365.3 210.7 411.2 220.5C457 230.3 503 230.7 548.8 230.5C594.7 230.3 640.3 229.7 686 226.5C731.7 223.3 777.3 217.7 823 214C868.7 210.3 914.3 208.7 937.2 207.8L960 207L960 0L937.2 0C914.3 0 868.7 0 823 0C777.3 0 731.7 0 686 0C640.3 0 594.7 0 548.8 0C503 0 457 0 411.2 0C365.3 0 319.7 0 274 0C228.3 0 182.7 0 137 0C91.3 0 45.7 0 22.8 0L0 0Z" fill="#fa7268"></path><path d="M0 176L22.8 175.2C45.7 174.3 91.3 172.7 137 166.5C182.7 160.3 228.3 149.7 274 151.5C319.7 153.3 365.3 167.7 411.2 166.3C457 165 503 148 548.8 148.7C594.7 149.3 640.3 167.7 686 174.5C731.7 181.3 777.3 176.7 823 174.5C868.7 172.3 914.3 172.7 937.2 172.8L960 173L960 0L937.2 0C914.3 0 868.7 0 823 0C777.3 0 731.7 0 686 0C640.3 0 594.7 0 548.8 0C503 0 457 0 411.2 0C365.3 0 319.7 0 274 0C228.3 0 182.7 0 137 0C91.3 0 45.7 0 22.8 0L0 0Z" fill="#e6506c"></path><path d="M0 99L22.8 107.3C45.7 115.7 91.3 132.3 137 139C182.7 145.7 228.3 142.3 274 140.7C319.7 139 365.3 139 411.2 131.3C457 123.7 503 108.3 548.8 110.5C594.7 112.7 640.3 132.3 686 135.3C731.7 138.3 777.3 124.7 823 114.8C868.7 105 914.3 99 937.2 96L960 93L960 0L937.2 0C914.3 0 868.7 0 823 0C777.3 0 731.7 0 686 0C640.3 0 594.7 0 548.8 0C503 0 457 0 411.2 0C365.3 0 319.7 0 274 0C228.3 0 182.7 0 137 0C91.3 0 45.7 0 22.8 0L0 0Z" fill="#cc2f73"></path><path d="M0 112L22.8 103.8C45.7 95.7 91.3 79.3 137 72.2C182.7 65 228.3 67 274 75.2C319.7 83.3 365.3 97.7 411.2 101.2C457 104.7 503 97.3 548.8 92.8C594.7 88.3 640.3 86.7 686 89.3C731.7 92 777.3 99 823 99.5C868.7 100 914.3 94 937.2 91L960 88L960 0L937.2 0C914.3 0 868.7 0 823 0C777.3 0 731.7 0 686 0C640.3 0 594.7 0 548.8 0C503 0 457 0 411.2 0C365.3 0 319.7 0 274 0C228.3 0 182.7 0 137 0C91.3 0 45.7 0 22.8 0L0 0Z" fill="#aa107a"></path><path d="M0 52L22.8 51.5C45.7 51 91.3 50 137 46.2C182.7 42.3 228.3 35.7 274 36C319.7 36.3 365.3 43.7 411.2 45.3C457 47 503 43 548.8 45C594.7 47 640.3 55 686 58.3C731.7 61.7 777.3 60.3 823 61C868.7 61.7 914.3 64.3 937.2 65.7L960 67L960 0L937.2 0C914.3 0 868.7 0 823 0C777.3 0 731.7 0 686 0C640.3 0 594.7 0 548.8 0C503 0 457 0 411.2 0C365.3 0 319.7 0 274 0C228.3 0 182.7 0 137 0C91.3 0 45.7 0 22.8 0L0 0Z" fill="#800080"></path></svg>