<svg id="visual" viewBox="0 0 960 190" width="960" height="190" xmlns="http://www.w3.org/2000/svg" xmlns:xlink="http://www.w3.org/1999/xlink" version="1.1"><rect x="0" y="0" width="960" height="190" fill="#FA7268"></rect><path d="M0 128L40 127.7C80 127.3 160 126.7 240 127.3C320 128 400 130 480 135C560 140 640 148 720 149.2C800 150.3 880 144.7 920 141.8L960 139L960 0L920 0C880 0 800 0 720 0C640 0 560 0 480 0C400 0 320 0 240 0C160 0 80 0 40 0L0 0Z" fill="#fa7268"></path><path d="M0 112L40 110.5C80 109 160 106 240 104.8C320 103.7 400 104.3 480 105.5C560 106.7 640 108.3 720 110.5C800 112.7 880 115.3 920 116.7L960 118L960 0L920 0C880 0 800 0 720 0C640 0 560 0 480 0C400 0 320 0 240 0C160 0 80 0 40 0L0 0Z" fill="#d14866"></path><path d="M0 81L40 81.3C80 81.7 160 82.3 240 82C320 81.7 400 80.3 480 79.2C560 78 640 77 720 77.7C800 78.3 880 80.7 920 81.8L960 83L960 0L920 0C880 0 800 0 720 0C640 0 560 0 480 0C400 0 320 0 240 0C160 0 80 0 40 0L0 0Z" fill="#a02562"></path><path d="M0 73L40 69C80 65 160 57 240 56.2C320 55.3 400 61.7 480 63.7C560 65.7 640 63.3 720 60.3C800 57.3 880 53.7 920 51.8L960 50L960 0L920 0C880 0 800 0 720 0C640 0 560 0 480 0C400 0 320 0 240 0C160 0 80 0 40 0L0 0Z" fill="#6b0959"></path><path d="M0 16L40 18.5C80 21 160 26 240 26.7C320 27.3 400 23.7 480 21.3C560 19 640 18 720 21C800 24 880 31 920 34.5L960 38L960 0L920 0C880 0 800 0 720 0C640 0 560 0 480 0C400 0 320 0 240 0C160 0 80 0 40 0L0 0Z" fill="#31004a"></path></svg>