<svg id="visual" viewBox="0 0 960 190" width="960" height="190" xmlns="http://www.w3.org/2000/svg" xmlns:xlink="http://www.w3.org/1999/xlink" version="1.1"><rect x="0" y="0" width="960" height="190" fill="#FA7268"></rect><path d="M0 110L17.8 109.5C35.7 109 71.3 108 106.8 106.2C142.3 104.3 177.7 101.7 213.2 104.5C248.7 107.3 284.3 115.7 320 119.7C355.7 123.7 391.3 123.3 426.8 123C462.3 122.7 497.7 122.3 533.2 125C568.7 127.7 604.3 133.3 640 136.8C675.7 140.3 711.3 141.7 746.8 135.2C782.3 128.7 817.7 114.3 853.2 112.7C888.7 111 924.3 122 942.2 127.5L960 133L960 0L942.2 0C924.3 0 888.7 0 853.2 0C817.7 0 782.3 0 746.8 0C711.3 0 675.7 0 640 0C604.3 0 568.7 0 533.2 0C497.7 0 462.3 0 426.8 0C391.3 0 355.7 0 320 0C284.3 0 248.7 0 213.2 0C177.7 0 142.3 0 106.8 0C71.3 0 35.7 0 17.8 0L0 0Z" fill="#fa7268"></path><path d="M0 82L17.8 89.2C35.7 96.3 71.3 110.7 106.8 117.2C142.3 123.7 177.7 122.3 213.2 122.3C248.7 122.3 284.3 123.7 320 120.5C355.7 117.3 391.3 109.7 426.8 105.2C462.3 100.7 497.7 99.3 533.2 102.3C568.7 105.3 604.3 112.7 640 116.7C675.7 120.7 711.3 121.3 746.8 115.5C782.3 109.7 817.7 97.3 853.2 97.8C888.7 98.3 924.3 111.7 942.2 118.3L960 125L960 0L942.2 0C924.3 0 888.7 0 853.2 0C817.7 0 782.3 0 746.8 0C711.3 0 675.7 0 640 0C604.3 0 568.7 0 533.2 0C497.7 0 462.3 0 426.8 0C391.3 0 355.7 0 320 0C284.3 0 248.7 0 213.2 0C177.7 0 142.3 0 106.8 0C71.3 0 35.7 0 17.8 0L0 0Z" fill="#d14866"></path><path d="M0 84L17.8 82.3C35.7 80.7 71.3 77.3 106.8 75.5C142.3 73.7 177.7 73.3 213.2 72.3C248.7 71.3 284.3 69.7 320 70.7C355.7 71.7 391.3 75.3 426.8 76.8C462.3 78.3 497.7 77.7 533.2 81C568.7 84.3 604.3 91.7 640 95.2C675.7 98.7 711.3 98.3 746.8 92.5C782.3 86.7 817.7 75.3 853.2 74.3C888.7 73.3 924.3 82.7 942.2 87.3L960 92L960 0L942.2 0C924.3 0 888.7 0 853.2 0C817.7 0 782.3 0 746.8 0C711.3 0 675.7 0 640 0C604.3 0 568.7 0 533.2 0C497.7 0 462.3 0 426.8 0C391.3 0 355.7 0 320 0C284.3 0 248.7 0 213.2 0C177.7 0 142.3 0 106.8 0C71.3 0 35.7 0 17.8 0L0 0Z" fill="#a02562"></path><path d="M0 44L17.8 44C35.7 44 71.3 44 106.8 46.8C142.3 49.7 177.7 55.3 213.2 57.8C248.7 60.3 284.3 59.7 320 55.7C355.7 51.7 391.3 44.3 426.8 40.5C462.3 36.7 497.7 36.3 533.2 40.7C568.7 45 604.3 54 640 56.2C675.7 58.3 711.3 53.7 746.8 53.8C782.3 54 817.7 59 853.2 59.7C888.7 60.3 924.3 56.7 942.2 54.8L960 53L960 0L942.2 0C924.3 0 888.7 0 853.2 0C817.7 0 782.3 0 746.8 0C711.3 0 675.7 0 640 0C604.3 0 568.7 0 533.2 0C497.7 0 462.3 0 426.8 0C391.3 0 355.7 0 320 0C284.3 0 248.7 0 213.2 0C177.7 0 142.3 0 106.8 0C71.3 0 35.7 0 17.8 0L0 0Z" fill="#6b0959"></path><path d="M0 45L17.8 42.8C35.7 40.7 71.3 36.3 106.8 33.7C142.3 31 177.7 30 213.2 30.3C248.7 30.7 284.3 32.3 320 34.8C355.7 37.3 391.3 40.7 426.8 38.3C462.3 36 497.7 28 533.2 27.3C568.7 26.7 604.3 33.3 640 35C675.7 36.7 711.3 33.3 746.8 30.5C782.3 27.7 817.7 25.3 853.2 25.8C888.7 26.3 924.3 29.7 942.2 31.3L960 33L960 0L942.2 0C924.3 0 888.7 0 853.2 0C817.7 0 782.3 0 746.8 0C711.3 0 675.7 0 640 0C604.3 0 568.7 0 533.2 0C497.7 0 462.3 0 426.8 0C391.3 0 355.7 0 320 0C284.3 0 248.7 0 213.2 0C177.7 0 142.3 0 106.8 0C71.3 0 35.7 0 17.8 0L0 0Z" fill="#31004a"></path></svg>